<svg width="43" height="43" viewBox="0 0 43 43" fill="none" xmlns="http://www.w3.org/2000/svg">
<path d="M21.4665 1.34375C17.4016 1.34375 14.0759 4.60234 14.0759 8.6V9.74219C14.0759 10.9852 14.8149 11.993 16.2931 12.0938V8.6C16.2931 5.81172 18.611 3.52734 21.4665 3.52734C24.322 3.52734 26.6399 5.81172 26.6399 8.6V12.0938C27.7485 12.0266 28.8571 10.9852 28.8571 9.74219V8.6C28.8571 4.60234 25.5313 1.34375 21.4665 1.34375Z" fill="#C62828"/>
<path d="M27.446 32.9219H15.5202C14.7812 32.9219 14.1429 32.3172 14.1429 31.5446V31.3094C14.1429 30.5704 14.7476 29.9321 15.5202 29.9321H27.4796C28.2187 29.9321 28.8569 30.5368 28.8569 31.3094V31.5782C28.8233 32.3172 28.2187 32.9219 27.446 32.9219Z" fill="#29B6F6"/>
<path d="M8.96962 41.6563H33.9298C35.6431 41.6563 37.054 40.3461 37.054 38.7672V20.3914C37.054 11.7914 30.0665 5.4758 21.4665 5.4758C12.8665 5.4758 5.8454 11.7578 5.8454 20.3914V38.7672C5.8454 40.3461 7.25634 41.6563 8.96962 41.6563Z" fill="url(#paint0_linear)"/>
<path d="M29.8648 38.4984H13.1351C11.2874 38.4984 9.7757 36.9867 9.7757 35.1391V25.0273C9.7757 24.4562 10.2124 24.0195 10.7835 24.0195H32.1827C32.7538 24.0195 33.1905 24.4562 33.1905 25.0273V35.1391C33.2241 36.9867 31.7124 38.4984 29.8648 38.4984Z" fill="url(#paint1_radial)"/>
<path d="M24.893 17.4352H18.1071C16.6962 17.4352 15.5204 16.293 15.5204 14.8484C15.5204 13.4039 16.6626 12.2617 18.1071 12.2617H24.893C26.304 12.2617 27.4798 13.4039 27.4798 14.8484C27.4798 16.2594 26.304 17.4352 24.893 17.4352Z" fill="#FAB300"/>
<path opacity="0.2" d="M21.4664 6.48361C25.4305 6.48361 29.0922 7.89455 31.8133 10.4477C34.568 13.0344 36.0797 16.5617 36.0797 20.3914V38.7672C36.0797 39.8086 35.1391 40.6484 33.9633 40.6484H8.96953C7.79375 40.6484 6.85312 39.8086 6.85312 38.7672V20.3914C6.85312 16.5617 8.36484 13.0008 11.0859 10.4477C13.8406 7.86096 17.5023 6.48361 21.4664 6.48361ZM21.4664 5.4758C12.8664 5.4758 5.87891 11.7914 5.87891 20.3914V38.7672C5.87891 40.3797 7.28984 41.6563 9.00312 41.6563H33.9297C35.643 41.6563 37.0539 40.3461 37.0539 38.7672V20.3914C37.0539 11.7578 30.0664 5.4758 21.4664 5.4758V5.4758Z" fill="#424242"/>
<path opacity="0.2" d="M32.2163 24.6914C32.4179 24.6914 32.5523 24.8258 32.5523 25.0273V35.1391C32.5523 36.6172 31.3429 37.8266 29.8648 37.8266H13.1351C11.6569 37.8266 10.4476 36.6172 10.4476 35.1391V25.0273C10.4476 24.8258 10.6155 24.6914 10.7835 24.6914H32.2163ZM32.2163 24.0195H10.7835C10.2124 24.0195 9.7757 24.4562 9.7757 25.0273V35.1391C9.7757 36.9867 11.2874 38.4984 13.1351 38.4984H29.8312C31.6788 38.4984 33.1905 36.9867 33.1905 35.1391V25.0273C33.2241 24.4898 32.7874 24.0195 32.2163 24.0195Z" fill="#424242"/>
<path d="M29.8985 31.7797H13.1688C11.3212 31.7797 9.80945 29.932 9.80945 28.0844V24.2883C9.80945 23.5492 10.4141 22.9445 11.1532 22.9445H31.9141C32.6532 22.9445 33.2579 23.5492 33.2579 24.2883V28.0844C33.2579 29.932 31.7462 31.7797 29.8985 31.7797Z" fill="url(#paint2_linear)"/>
<path opacity="0.2" d="M31.9141 23.6164C32.2837 23.6164 32.586 23.9188 32.586 24.2883V28.0844C32.586 29.8313 31.1751 31.1078 29.8985 31.1078H13.1688C11.8923 31.1078 10.4813 29.8313 10.4813 28.0844V24.2883C10.4813 23.9188 10.7837 23.6164 11.1532 23.6164H31.9141ZM31.9141 22.9445H11.1532C10.4141 22.9445 9.80945 23.5492 9.80945 24.2883V28.0844C9.80945 29.932 11.3212 31.7797 13.1688 31.7797H29.8985C31.7462 31.7797 33.2579 29.932 33.2579 28.0844V24.2883C33.2579 23.5492 32.6532 22.9445 31.9141 22.9445Z" fill="#424242"/>
<path d="M21.5 34.4C20.5594 34.4 19.8203 33.6609 19.8203 32.7203V30.4695C19.8203 29.5289 20.5594 28.7898 21.5 28.7898C22.4406 28.7898 23.1797 29.5289 23.1797 30.4695V32.7203C23.1797 33.6609 22.4406 34.4 21.5 34.4Z" fill="#FFEB3B"/>
<path opacity="0.2" d="M21.5 29.4617C22.0711 29.4617 22.5078 29.932 22.5078 30.4695V32.7203C22.5078 33.2914 22.0375 33.7281 21.5 33.7281C20.9625 33.7281 20.4922 33.2578 20.4922 32.7203V30.4695C20.4922 29.8984 20.9289 29.4617 21.5 29.4617ZM21.5 28.7898C20.5594 28.7898 19.8203 29.5289 19.8203 30.4695V32.7203C19.8203 33.6609 20.5594 34.4 21.5 34.4C22.4406 34.4 23.1797 33.6609 23.1797 32.7203V30.4695C23.1797 29.5289 22.4406 28.7898 21.5 28.7898Z" fill="#424242"/>
<path opacity="0.2" d="M24.893 13.2695C25.7665 13.2695 26.4719 13.975 26.4719 14.8484C26.4719 15.7219 25.7665 16.4273 24.893 16.4273H18.1071C17.2337 16.4273 16.5282 15.7219 16.5282 14.8484C16.5282 13.975 17.2337 13.2695 18.1071 13.2695H24.893ZM24.893 12.2617H18.1071C16.6962 12.2617 15.5204 13.4039 15.5204 14.8484C15.5204 16.293 16.6626 17.4352 18.1071 17.4352H24.893C26.304 17.4352 27.4798 16.293 27.4798 14.8484C27.4798 13.4039 26.304 12.2617 24.893 12.2617Z" fill="#424242"/>
<defs>
<linearGradient id="paint0_linear" x1="21.4497" y1="41.3203" x2="21.4497" y2="5.13986" gradientUnits="userSpaceOnUse">
<stop offset="0.216" stop-color="#C62828"/>
<stop offset="0.86" stop-color="#E53935"/>
</linearGradient>
<radialGradient id="paint1_radial" cx="0" cy="0" r="1" gradientUnits="userSpaceOnUse" gradientTransform="translate(21.3397 34.9445) scale(17.9649 4.72657)">
<stop offset="0.227" stop-color="#E53935"/>
<stop offset="0.905" stop-color="#C62828"/>
</radialGradient>
<linearGradient id="paint2_linear" x1="21.5337" y1="23.0453" x2="21.5337" y2="31.9141" gradientUnits="userSpaceOnUse">
<stop offset="0.227" stop-color="#E53935"/>
<stop offset="0.905" stop-color="#C62828"/>
</linearGradient>
</defs>
</svg>
