<svg width="43" height="43" viewBox="0 0 43 43" fill="none" xmlns="http://www.w3.org/2000/svg">
<path d="M3.4567 31.2072L7.56185 35.3124L6.45781 36.4152L2.35266 32.3113L3.4567 31.2072Z" fill="#77B255"/>
<path d="M7.45538 35.2036L11.5593 39.3087L10.4553 40.4127L6.35254 36.3076L7.45538 35.2036Z" fill="#FFD983"/>
<path d="M7.34891 28.8042L11.4541 32.9093L10.35 34.0134L6.24487 29.9082L7.34891 28.8042Z" fill="#FFAC33"/>
<path d="M10.6085 32.0637L14.7136 36.1688L13.6096 37.2729L9.50562 33.1677L10.6085 32.0637ZM15.2842 20.869L19.3881 24.9742L18.2841 26.0782L14.1801 21.9731L15.2842 20.869Z" fill="#EA596E"/>
<path d="M18.5424 24.1297L22.6475 28.2337L21.5435 29.3377L17.4384 25.2337L18.5424 24.1297Z" fill="#FFAC33"/>
<path d="M17.7516 17.0103L21.8568 21.1155L20.754 22.2195L16.6488 18.1144L17.7516 17.0103Z" fill="#77B255"/>
<path d="M21.7073 20.9647L25.8125 25.0699L24.7084 26.1739L20.6033 22.0688L21.7073 20.9647Z" fill="#FFD983"/>
<path d="M20.9167 13.8453L25.0218 17.9505L23.9178 19.0533L19.8126 14.9494L20.9167 13.8453Z" fill="#FFAC33"/>
<path d="M24.8723 17.801L28.9774 21.9049L27.8734 23.009L23.7694 18.9038L24.8723 17.801ZM29.0157 5.74628L33.1208 9.85143L32.0168 10.9543L27.9116 6.85031L29.0157 5.74628Z" fill="#EA596E"/>
<path d="M32.9713 9.70187L37.0765 13.8058L35.9725 14.9099L31.8673 10.8047L32.9713 9.70187Z" fill="#FFAC33"/>
<path d="M32.1568 2.50711L36.2619 6.61226L35.1579 7.71629L31.0527 3.61115L32.1568 2.50711Z" fill="#77B255"/>
<path d="M36.1603 6.51178L40.2655 10.6157L39.1614 11.7198L35.0563 7.61582L36.1603 6.51178Z" fill="#FFD983"/>
<path d="M29.6558 0.784668C26.6415 3.79894 26.5446 8.13494 26.7898 12.514C27.3891 12.5475 27.9884 12.587 28.5864 12.6264C29.0529 12.6575 29.5135 12.6874 29.9728 12.715C29.7359 8.78445 29.7347 5.18048 31.8938 3.02145C32.7634 2.18056 33.0361 1.04423 32.4284 0.430611C31.7885 -0.215304 30.584 -0.16387 29.6558 0.784668V0.784668Z" fill="#9266CC"/>
<path d="M15.57 30.4944L15.387 27.3126C15.3559 26.7804 15.3176 26.2373 15.2985 25.7194C14.9444 25.3653 12.3488 25.3019 12.1251 25.5256C12.1407 26.0519 12.1813 26.583 12.21 27.1129C12.2435 27.7133 12.3608 29.8341 12.3883 30.2946C12.4529 31.3831 12.5031 32.4548 12.4911 33.4716C12.8009 33.7814 15.3272 33.9943 15.6549 33.6653C15.6729 32.6223 15.6286 31.5589 15.57 30.4944V30.4944Z" fill="#3B88C3"/>
<path d="M15.6584 33.6641L12.4899 33.4703C12.4588 36.1126 12.0306 38.4283 10.472 39.9869C9.85358 40.6053 9.85358 41.6065 10.472 42.2249C10.7806 42.5335 11.1861 42.689 11.5904 42.689C11.9947 42.689 12.4002 42.5347 12.7088 42.2249C15.607 39.3278 15.6596 33.6438 15.6584 33.6641V33.6641Z" fill="#55ACEE"/>
<path d="M30.1725 15.8978C29.5732 15.8644 28.9727 15.8249 28.3747 15.7854C27.9094 15.7543 27.4476 15.7244 26.9895 15.6969C27.2264 19.6262 27.2276 23.2314 25.0673 25.3904C22.9095 27.5482 19.3103 27.5494 15.3858 27.3126C14.9241 27.2851 12.8033 27.1451 12.2088 27.1117C7.8226 26.8652 3.48061 26.9609 0.462756 29.9788C-0.154451 30.596 -0.154451 31.5972 0.463952 32.2156C0.772556 32.5242 1.17805 32.6797 1.58234 32.6797C1.98664 32.6797 2.39213 32.5254 2.70073 32.2156C4.85976 30.0577 8.46014 30.0554 12.3871 30.2922C12.8476 30.3197 14.9719 30.4596 15.5688 30.4931C19.9491 30.7383 24.2874 30.6427 27.3041 27.6272C30.3196 24.6129 30.4177 20.2769 30.1725 15.8978V15.8978Z" fill="#9266CC"/>
<path d="M30.1724 15.8979C30.1389 15.2986 29.999 13.1743 29.9715 12.7161C29.9392 12.1779 29.9129 11.6468 29.8949 11.1229C29.493 11.0978 27.383 10.9638 26.7216 10.9279C26.7371 11.4542 26.7598 11.9841 26.7885 12.514C26.822 13.1133 26.962 15.2376 26.9895 15.6969C27.0553 16.7902 27.0983 17.8548 27.0864 18.8739C27.4847 18.899 29.5911 19.0318 30.2502 19.0676C30.2681 18.0246 30.2322 16.9636 30.1724 15.8979V15.8979Z" fill="#744EAA"/>
<path d="M42.4053 10.3717C41.903 9.8502 40.7487 9.65283 39.665 10.7939C37.506 12.953 33.9032 12.9542 29.9715 12.7161C29.5122 12.6886 27.3878 12.5475 26.7886 12.514C22.4107 12.2688 18.0735 12.3669 15.0592 15.3811C12.4098 18.0306 12.015 21.7015 12.1251 25.5244C12.7866 25.5603 14.8989 25.6943 15.2984 25.7182C15.1812 22.4228 15.4336 19.4815 17.2972 17.6179C19.4562 15.4589 23.0602 15.4589 26.9907 15.6957C27.4488 15.7232 29.5744 15.8632 30.1736 15.8967C34.5527 16.1419 38.8887 16.045 41.903 13.0307C42.9627 11.9913 42.9077 10.8932 42.4053 10.3717V10.3717Z" fill="#55ACEE"/>
</svg>
