<svg width="37" height="37" viewBox="0 0 37 37" fill="none" xmlns="http://www.w3.org/2000/svg">
<path d="M9.10081 2.17836C11.2873 1.46842 17.4882 3.985 18.2826 4.89035C19.0717 5.79106 13.9201 6.16338 11.1231 6.57789C8.23709 7.01206 5.35861 7.53064 4.57178 6.62241C3.78553 5.72689 6.91723 2.89292 9.10081 2.17836Z" fill="#F79423"/>
<path d="M24.1494 0.600078C26.648 -0.129515 33.3485 2.87095 34.1579 3.89308C34.9591 4.92792 29.1975 5.18576 26.0525 5.56559C22.7971 5.95525 19.5365 6.44434 18.7346 5.41412C17.9276 4.392 21.6594 1.32216 24.1511 0.600078" fill="#F79423"/>
<path d="M9.48348 4.74466C10.9849 3.75722 17.4466 4.76721 18.5358 5.38754C19.6354 6.00266 15.4688 7.24852 13.3037 8.09952C11.0774 8.98 8.89611 9.94547 7.79941 9.31532C6.69577 8.7025 7.98845 5.74193 9.48464 4.74466" fill="#F79423"/>
<path d="M15.5411 0.0520205C17.727 0.248005 20.0273 4.07172 19.814 4.97764C19.6082 5.87836 15.5659 4.48624 13.1858 3.87863C10.7345 3.25541 8.20582 2.70446 8.42435 1.80374C8.63537 0.893192 13.35 -0.141651 15.5411 0.0520205Z" fill="#F79423"/>
<path d="M23.0279 4.32726C25.2219 4.51573 27.52 8.34234 27.3061 9.24537C27.0927 10.1513 23.0528 8.75627 20.6727 8.15098C18.2283 7.53065 15.6921 6.97218 15.9106 6.06915C16.1176 5.16612 20.8421 4.13648 23.0279 4.32899" fill="#F79423"/>
<path d="M2.72412 29.8521C2.72412 35.3044 10.5161 36.8925 18.8515 36.8925C27.1863 36.8925 34.9812 35.3044 34.9812 29.8521C34.9812 24.4102 27.1869 8.15387 18.8515 8.15387C10.5161 8.15387 2.72412 24.4107 2.72412 29.8521Z" fill="#F79423"/>
<path d="M23.854 8.82394C23.8541 9.0951 23.8009 9.36363 23.6972 9.61417C23.5935 9.86471 23.4414 10.0924 23.2497 10.2841C23.0579 10.4758 22.8303 10.6279 22.5797 10.7316C22.3292 10.8353 22.0607 10.8886 21.7895 10.8884H15.9129C15.3653 10.8884 14.8402 10.6709 14.4531 10.2838C14.0659 9.89659 13.8484 9.37148 13.8484 8.82394C13.8484 8.27641 14.0659 7.7513 14.4531 7.36413C14.8402 6.97697 15.3653 6.75946 15.9129 6.75946H21.7889C22.0601 6.75938 22.3286 6.81273 22.5792 6.91644C22.8297 7.02016 23.0574 7.17222 23.2491 7.36393C23.4409 7.55564 23.593 7.78326 23.6968 8.03377C23.8006 8.28428 23.854 8.55278 23.854 8.82394Z" fill="#845939"/>
<path d="M22.6555 23.6835C22.0155 23.0007 21.1321 22.544 20.2933 22.1647C19.4197 21.767 18.1542 21.4426 17.5981 20.5864C17.1315 19.8696 17.7744 19.1174 18.4294 18.8989C19.4839 18.5445 20.7847 18.9712 21.7103 19.492C22.1716 19.7499 22.6584 19.4973 22.8341 19.0353C23.0278 18.5243 23.2215 18.0126 23.4123 17.5021C23.5291 17.1917 23.3406 16.7945 23.0631 16.6384C22.2219 16.1719 21.3455 15.9163 20.4199 15.7949V14.2317C20.4199 13.8149 20.0724 13.4674 19.6556 13.4674H18.2138C17.7993 13.4674 17.4495 13.8149 17.4495 14.2317V15.9776C16.0227 16.3893 14.7225 17.3079 14.216 18.7671C13.6529 20.3824 13.9952 22.0549 15.1936 23.2782C15.8365 23.9361 16.7049 24.368 17.5293 24.742C18.4595 25.1617 19.6036 25.4641 20.2043 26.3602C20.8471 27.3181 20.0158 28.2634 19.1174 28.5345C17.9114 28.8964 16.4499 28.3535 15.437 27.7228C14.993 27.4453 14.4768 27.7303 14.3155 28.1795L13.757 29.7353C13.6379 30.0677 13.8362 30.4203 14.1091 30.5984C15.0647 31.2239 16.1614 31.5338 17.2853 31.6633V33.3087C17.2853 33.5324 17.3674 33.7035 17.4888 33.8249C17.4963 33.833 17.5038 33.84 17.5085 33.8475C17.5154 33.8547 17.5229 33.8612 17.531 33.8671C17.6524 33.9914 17.8235 34.0729 18.0473 34.0729H19.514C19.7159 34.0711 19.909 33.9899 20.0516 33.8469C20.1941 33.7039 20.2747 33.5106 20.2759 33.3087V31.4922C21.8617 31.0355 23.0874 30.011 23.7054 28.42C24.339 26.7972 23.8002 24.9085 22.6515 23.6829" fill="#25333A"/>
<path d="M22.6555 22.6278C22.0155 21.9479 21.1321 21.4912 20.2933 21.112C19.4197 20.7142 18.1542 20.3899 17.5981 19.5314C17.1315 18.8191 17.7744 18.0647 18.4294 17.8438C19.4839 17.4917 20.7847 17.9161 21.7103 18.437C22.1716 18.6977 22.6584 18.4416 22.8341 17.9803C23.0278 17.4692 23.2215 16.9604 23.4123 16.4494C23.5291 16.1366 23.3406 15.7394 23.0631 15.5857C22.2219 15.1168 21.3455 14.8636 20.4199 14.7399V13.1766C20.4199 12.7621 20.0724 12.4146 19.6556 12.4146H18.2138C17.7993 12.4146 17.4495 12.7621 17.4495 13.1766V14.9225C16.0227 15.3348 14.7225 16.2551 14.216 17.7143C13.6529 19.3296 13.9952 21.0021 15.1936 22.2231C15.8365 22.881 16.7049 23.3152 17.5293 23.6869C18.4595 24.1066 19.6036 24.409 20.2043 25.3051C20.8471 26.2625 20.0158 27.2083 19.1174 27.4812C17.9114 27.8436 16.4499 27.3008 15.437 26.6677C14.993 26.392 14.4768 26.6776 14.3155 27.1245L13.757 28.6825C13.6379 29.012 13.8362 29.3676 14.1091 29.5456C15.0647 30.1689 16.1614 30.481 17.2853 30.6105V32.2559C17.2853 32.4767 17.3674 32.6484 17.4888 32.7722C17.4963 32.7803 17.5038 32.7872 17.5085 32.7947C17.5165 32.8006 17.5241 32.8072 17.531 32.8144C17.6524 32.9358 17.8235 33.0179 18.0473 33.0179H19.514C19.7154 33.0161 19.9081 32.9353 20.0506 32.7929C20.1931 32.6505 20.274 32.4579 20.2759 32.2565V30.4377C21.8617 29.9815 23.0874 28.9588 23.7054 27.3661C24.339 25.7439 23.8002 23.8528 22.6515 22.6272" fill="#25333A"/>
</svg>
