<svg width="65" height="46" viewBox="0 0 65 46" fill="none" xmlns="http://www.w3.org/2000/svg">
<path d="M62.4194 30.705C61.3319 29.0737 57.8885 26.3456 54.1245 25.8092C50.2314 25.2525 46.9779 26.141 42.012 23.2396C41.8534 23.1179 41.6968 22.9981 41.5087 22.8893C37.5401 20.5907 30.6018 12.904 30.4488 5.30032C30.3622 0.994312 24.9188 0.461592 20.5409 0.999843C16.163 1.53809 1.95465 4.83949 2.49106 6.99065C2.9482 8.81739 2.90396 16.7898 2.45788 22.1151C1.78322 26.2995 1.28552 32.1336 1.28552 35.8295C1.28368 37.0516 3.18231 37.7908 3.18231 37.7908L29.3539 38.7125L61.9586 37.8332C61.9586 37.8332 63.6784 37.6783 63.6287 36.5226C63.5512 34.7567 63.3411 32.0875 62.4194 30.705V30.705Z" fill="#C1694F"/>
<path d="M41.6618 38.635C43.0443 36.1779 46.0397 34.1797 50.4176 33.8737C54.7955 33.5677 61.0941 29.2083 61.0941 29.2083C61.0941 29.2083 62.8803 29.2083 63.9162 32.9521C64.7697 36.0304 63.1678 36.812 63.1678 36.812C63.1678 36.812 56.6388 40.4802 52.3383 39.7889C48.0378 39.0977 41.6618 38.635 41.6618 38.635V38.635ZM2.39523 23.3317C2.39523 23.3317 0.321486 30.0709 0.809967 33.7668C1.14361 36.2903 1.86619 38.1005 3.34638 38.5226C4.82657 38.9447 20.858 38.6442 20.5409 38.5392C20.2239 38.4341 18.5188 30.9373 12.0727 29.035C5.62658 27.1327 2.39523 23.3317 2.39523 23.3317V23.3317Z" fill="#662113"/>
<path d="M2.39512 44.3567C1.38129 44.3567 0.494651 43.5493 0.264235 40.7844L0.207092 39.7484C0.494651 36.0618 1.38313 40.9005 2.39696 40.9005C3.41079 40.9005 4.24029 41.73 4.24029 42.7438C4.23845 43.7576 3.40895 44.3567 2.39512 44.3567V44.3567ZM7.98409 44.8176C6.97026 44.8176 6.14076 43.9881 6.14076 42.9742C6.14076 41.9604 6.97026 41.1309 7.98409 41.1309C8.99792 41.1309 9.82741 41.9604 9.82741 42.9742C9.82741 43.9881 8.99792 44.8176 7.98409 44.8176ZM13.6283 45.1641C12.6145 45.1641 11.785 44.3346 11.785 43.3208C11.785 42.3069 12.6145 41.4774 13.6283 41.4774C14.6422 41.4774 15.4717 42.3069 15.4717 43.3208C15.4717 44.3346 14.6422 45.1641 13.6283 45.1641ZM19.2726 44.8765C18.2588 44.8765 17.4293 44.047 17.4293 43.0332C17.4293 42.0194 18.2588 41.1899 19.2726 41.1899C20.2864 41.1899 21.1159 42.0194 21.1159 43.0332C21.1159 44.047 20.2883 44.8765 19.2726 44.8765ZM35.7483 45.1641C34.7344 45.1641 33.9049 44.3346 33.9049 43.3208C33.9049 42.3069 34.7344 41.4774 35.7483 41.4774C36.7621 41.4774 37.5916 42.3069 37.5916 43.3208C37.5916 44.3346 36.7621 45.1641 35.7483 45.1641ZM41.2782 45.1641C40.2644 45.1641 39.4349 44.3346 39.4349 43.3208C39.4349 42.3069 40.2644 41.4774 41.2782 41.4774C42.2921 41.4774 43.1216 42.3069 43.1216 43.3208C43.1216 44.3346 42.2921 45.1641 41.2782 45.1641ZM46.6939 44.9337C45.6801 44.9337 44.8506 44.1042 44.8506 43.0904C44.8506 42.0765 45.6801 41.247 46.6939 41.247C47.7078 41.247 48.5373 42.0765 48.5373 43.0904C48.5373 44.1042 47.7059 44.9337 46.6939 44.9337ZM52.2811 44.589C51.2672 44.589 50.4377 43.7595 50.4377 42.7457C50.4377 41.7318 51.2672 40.9023 52.2811 40.9023C53.2949 40.9023 54.1244 41.7318 54.1244 42.7457C54.1244 43.7576 53.2949 44.589 52.2811 44.589ZM57.811 44.2424C56.7972 44.2424 55.9677 43.4129 55.9677 42.3991C55.9677 41.3853 56.7972 40.5558 57.811 40.5558C58.8249 40.5558 59.6544 41.3853 59.6544 42.3991C59.6544 43.4129 58.8249 44.2424 57.811 44.2424V44.2424ZM63.271 43.3558H62.753C61.7392 43.3558 60.9097 42.2387 60.9097 41.2249C60.9097 40.2111 61.7392 39.3816 62.753 39.3816C63.7668 39.3816 65 38.1373 65 39.1512L64.8839 41.1088C64.8839 42.1226 64.2848 43.3558 63.271 43.3558Z" fill="#292F33"/>
<path d="M2.87628 8.37499C1.56199 9.04965 1.49378 6.07083 2.72328 4.68834C3.95278 3.30584 14.2441 1.46252 16.7786 1.00168C19.3132 0.540853 24.2294 -0.38081 25.7649 0.848688C27.3003 2.07819 27.6082 6.07083 27.5308 7.53074C27.4533 8.98882 21.8459 6.76208 17.315 6.30125C13.033 5.86438 5.87168 6.83765 2.87628 8.37499Z" fill="#662113"/>
<path d="M25.8018 15.8239C27.3289 15.8239 28.5668 14.5859 28.5668 13.0589C28.5668 11.5318 27.3289 10.2939 25.8018 10.2939C24.2747 10.2939 23.0368 11.5318 23.0368 13.0589C23.0368 14.5859 24.2747 15.8239 25.8018 15.8239Z" fill="#292F33"/>
<path d="M28.2792 21.7189C29.8063 21.7189 31.0442 20.4809 31.0442 18.9539C31.0442 17.4268 29.8063 16.1889 28.2792 16.1889C26.7521 16.1889 25.5142 17.4268 25.5142 18.9539C25.5142 20.4809 26.7521 21.7189 28.2792 21.7189Z" fill="#292F33"/>
<path d="M32.6 26.6534C34.1271 26.6534 35.365 25.4155 35.365 23.8884C35.365 22.3614 34.1271 21.1235 32.6 21.1235C31.0729 21.1235 29.835 22.3614 29.835 23.8884C29.835 25.4155 31.0729 26.6534 32.6 26.6534Z" fill="#292F33"/>
<path d="M38.6277 29.3815C40.1547 29.3815 41.3926 28.1436 41.3926 26.6165C41.3926 25.0895 40.1547 23.8516 38.6277 23.8516C37.1006 23.8516 35.8627 25.0895 35.8627 26.6165C35.8627 28.1436 37.1006 29.3815 38.6277 29.3815Z" fill="#292F33"/>
<path d="M44.965 31.0129C46.4921 31.0129 47.73 29.7749 47.73 28.2479C47.73 26.7208 46.4921 25.4829 44.965 25.4829C43.4379 25.4829 42.2 26.7208 42.2 28.2479C42.2 29.7749 43.4379 31.0129 44.965 31.0129Z" fill="#292F33"/>
<path d="M25.61 14.6109C24.9427 14.6109 24.3381 14.1556 24.1777 13.4791C23.9879 12.6865 24.4763 11.892 25.269 11.7022L32.3344 10.0118C33.1234 9.81829 33.9215 10.3105 34.1114 11.1031C34.3013 11.8957 33.8128 12.6902 33.0202 12.8801L25.9547 14.5704C25.8386 14.598 25.7224 14.6109 25.61 14.6109V14.6109ZM28.375 20.4856C27.8441 20.4856 27.3317 20.1999 27.0681 19.6948C26.6902 18.9722 26.9685 18.0819 27.6893 17.704L34.2183 14.2865C34.9409 13.9123 35.8294 14.187 36.2091 14.9096C36.587 15.6321 36.3087 16.5225 35.5861 16.9003L29.057 20.3179C28.8395 20.4322 28.6054 20.4856 28.375 20.4856V20.4856ZM32.5225 25.4405C32.1077 25.4405 31.6948 25.2654 31.4036 24.928C30.8727 24.3105 30.9427 23.3796 31.5602 22.8488L37.0128 18.163C37.6322 17.6321 38.5612 17.704 39.0921 18.3197C39.623 18.9372 39.5529 19.8681 38.9354 20.399L33.4828 25.0847C33.2063 25.3225 32.8635 25.4405 32.5225 25.4405V25.4405ZM38.6644 28.2055C38.434 28.2055 38.1999 28.152 37.9824 28.0377C37.2598 27.6598 36.9815 26.7695 37.3594 26.0469L39.9713 21.0552C40.3492 20.3345 41.2432 20.058 41.9621 20.4322C42.6847 20.81 42.9631 21.7004 42.5852 22.423L39.9732 27.4147C39.7096 27.9179 39.1953 28.2055 38.6644 28.2055V28.2055ZM45.0239 29.8755C44.9557 29.8755 44.8875 29.8718 44.8174 29.8608C44.0101 29.7465 43.4497 29.0018 43.5621 28.1962L44.2737 23.1474C44.3861 22.34 45.1253 21.7649 45.9382 21.8921C46.7456 22.0064 47.3059 22.7511 47.1935 23.5566L46.482 28.6055C46.3806 29.3446 45.7483 29.8755 45.0239 29.8755Z" fill="#BE1931"/>
<path d="M1.34083 36.3456C2.79153 36.6682 5.39799 37.5659 9.80354 37.6359C14.8819 37.717 19.3649 36.6682 25.1179 36.6682C30.6313 36.6682 37.8369 38.2313 44.1392 37.9585C50.5669 37.6783 57.6876 36.7567 59.2397 36.4857C62.3125 35.9474 63.7337 35.6027 63.7337 35.6027C63.7337 35.6027 64.4066 35.564 64.7125 36.8709C65.0204 38.176 65.2729 40.7106 63.1623 41.3447C59.1328 42.5539 49.2378 43.3963 39.7078 43.2783C34.8673 43.2194 29.4792 41.7853 26.8672 41.4793C24.2552 41.1714 21.9511 40.9502 21.223 41.4793C20.493 42.0083 21.387 42.9392 19.4792 43.1991C14.7234 43.8442 3.60075 43.2802 1.17862 42.2479C-0.0600938 41.7207 -0.758715 35.8792 1.34083 36.3456V36.3456ZM23.6488 16.7824C23.2451 16.7824 22.8727 16.5133 22.7603 16.104L21.6359 12.0045C21.5013 11.5142 21.7907 11.0054 22.281 10.8708C22.7677 10.7363 23.2783 11.0238 23.4147 11.516L24.5391 15.6174C24.6737 16.1077 24.3843 16.6146 23.8939 16.7492C23.811 16.7713 23.728 16.7824 23.6488 16.7824V16.7824ZM26.423 22.8285C26.0525 22.8285 25.7041 22.6036 25.5621 22.2386L24.0377 18.2699C23.8552 17.7944 24.093 17.2598 24.5686 17.0792C25.0423 16.8948 25.5769 17.1345 25.7594 17.6082L27.2838 21.5769C27.4663 22.0524 27.2285 22.587 26.7529 22.7677C26.6442 22.8082 26.5317 22.8285 26.423 22.8285ZM31.9382 28.1022C31.7041 28.1022 31.47 28.0138 31.2894 27.835L28.2681 24.8451C27.9069 24.4875 27.9032 23.9031 28.2608 23.5419C28.6184 23.1806 29.2027 23.1769 29.564 23.5345L32.5852 26.5244C32.9465 26.882 32.9502 27.4663 32.5926 27.8276C32.4119 28.0101 32.176 28.1022 31.9382 28.1022ZM39.3078 30.9834C39.1659 30.9834 39.0221 30.9502 38.8875 30.882L35.1032 28.9446C34.6497 28.7124 34.4691 28.1557 34.7014 27.7041C34.9355 27.2506 35.4958 27.0718 35.9419 27.3022L39.7263 29.2396C40.1797 29.4718 40.3604 30.0285 40.1281 30.4801C39.964 30.799 39.6415 30.9834 39.3078 30.9834V30.9834ZM46.6682 32.3751C46.6092 32.3751 46.5484 32.3695 46.4876 32.3566L42.3161 31.5308C41.8166 31.4313 41.4922 30.9483 41.5899 30.4488C41.6894 29.9493 42.1797 29.6193 42.6719 29.7225L46.8433 30.5483C47.3429 30.6479 47.6673 31.1308 47.5696 31.6304C47.483 32.0709 47.0977 32.3751 46.6682 32.3751V32.3751Z" fill="#292F33"/>
</svg>
