<svg width="43" height="44" viewBox="0 0 43 44" fill="none" xmlns="http://www.w3.org/2000/svg">
<path d="M36.7389 41.9028C38.2096 43.3735 40.5506 43.4429 41.9368 42.0554C43.3243 40.668 43.2549 38.3282 41.7842 36.8575L12.441 7.51313C10.9691 6.04118 8.62935 5.9718 7.24317 7.36051C5.85446 8.74795 5.92384 11.0877 7.39579 12.5584L36.7389 41.9028V41.9028Z" fill="#F4900C"/>
<path d="M4.23497 9.58546C3.24988 8.60038 3.24988 7.0023 4.23497 6.01721L6.01846 4.23372C7.00229 3.24989 8.60037 3.24989 9.58545 4.23372C10.5705 5.2188 10.5705 6.81688 9.58545 7.80197L7.80196 9.58546C6.81687 10.5705 5.21879 10.5705 4.23497 9.58546V9.58546Z" fill="#F4900C"/>
<path d="M28.9378 1.18891C26.5955 0.251755 15.0633 -2.59503 6.23416 6.23416C-2.59503 15.0633 0.251755 26.5955 1.18891 28.9378C3.71153 35.2443 3.29656 27.597 3.71153 25.1538C4.99176 17.6225 8.53227 13.5775 11.0549 11.0549C13.5775 8.53227 17.6503 5.00942 25.1538 3.71153C27.5768 3.29278 35.2443 3.71153 28.9378 1.18891Z" fill="#66757F"/>
</svg>
