<svg width="58" height="58" viewBox="0 0 58 58" fill="none" xmlns="http://www.w3.org/2000/svg">
<path d="M48.6202 12.5742C46.9436 9.22107 40.2374 5.86795 36.8843 5.86795C36.8843 5.86795 38.8861 2.22312 35.2077 0.838279C33.553 0.214599 31.8546 0 28.5015 0C25.7938 0 23.45 0.214599 21.7953 0.838279C18.1169 2.22312 20.1187 5.86795 20.1187 5.86795C16.7656 5.86795 10.0593 9.22107 8.38279 12.5742C6.70623 15.9273 0 49.4065 0 55.3264C0 57.003 7.76582 57.7239 8.38279 56.1647C9.70895 52.8116 13.4125 29.3398 13.4125 29.3398V54.4881C13.4125 57.8413 21.7953 56.1647 28.5015 56.1647C35.2077 56.1647 43.5905 57.8413 43.5905 54.4881V29.3398C43.5905 29.3398 47.8238 54.6893 48.6202 56.1647C49.4568 57.7122 57.003 57.003 57.003 55.3264C57.003 49.4065 50.2967 15.9273 48.6202 12.5742Z" fill="#55ACEE"/>
<path d="M21.7953 2.51485C21.7953 1.58939 21.7953 0.838287 28.5015 0.838287C35.2078 0.838287 35.2078 1.58939 35.2078 2.51485C35.2078 3.44031 32.205 5.86796 28.5015 5.86796C24.798 5.86796 21.7953 3.44031 21.7953 2.51485Z" fill="#226699"/>
<path d="M28.5015 55.3264C28.0387 55.3264 27.6632 54.9509 27.6632 54.4881V7.54451C27.6632 7.08178 28.0387 6.70623 28.5015 6.70623C28.9642 6.70623 29.3398 7.08178 29.3398 7.54451V54.4881C29.3398 54.9509 28.9642 55.3264 28.5015 55.3264ZM21.1665 53.6968C18.1588 53.6968 15.1913 53.4 15.0052 53.3816C14.5441 53.3363 14.2088 52.9256 14.2558 52.4629C14.3027 52.0052 14.7135 51.6598 15.1745 51.7151C15.2433 51.7201 21.9545 52.3874 25.2087 51.7268C25.6647 51.6346 26.1057 51.9264 26.1979 52.3824C26.2901 52.8367 25.9984 53.2777 25.544 53.3715C24.3369 53.6146 22.7458 53.6968 21.1665 53.6968ZM19.5403 48.5263C17.23 48.5263 15.136 48.3938 14.7101 48.3653C14.2491 48.3335 13.8987 47.9345 13.9305 47.4734C13.9624 47.0124 14.3429 46.6519 14.8241 46.6921C17.0422 46.8414 23.2103 47.066 25.0662 46.325C25.4971 46.154 25.9833 46.3602 26.156 46.7911C26.3287 47.2219 26.1191 47.7098 25.6882 47.8791C24.409 48.3922 21.8657 48.5263 19.5403 48.5263V48.5263ZM21.5806 43.1965C18.8143 43.1965 15.6272 42.9568 14.6984 42.8813C14.2373 42.8444 13.8936 42.4387 13.9305 41.9793C13.9691 41.5183 14.3798 41.1763 14.8342 41.2115C19.1496 41.5602 24.1374 41.6725 25.0142 41.2517C25.4334 41.0522 25.933 41.2282 26.1325 41.6457C26.332 42.0632 26.156 42.5645 25.7385 42.764C25.0528 43.0926 23.4081 43.1965 21.5806 43.1965V43.1965ZM21.5153 38.016C18.5477 38.016 15.2282 37.6672 14.6749 37.6069C14.2155 37.5566 13.8819 37.1441 13.9322 36.6814C13.9808 36.222 14.3882 35.88 14.856 35.9404C17.1093 36.1868 23.3377 36.6747 25.0679 35.994C25.4954 35.8197 25.985 36.0359 26.156 36.4651C26.3253 36.8977 26.1141 37.3839 25.6832 37.5515C24.7996 37.9003 23.2153 38.016 21.5153 38.016V38.016ZM21.5941 32.1078C18.655 32.1078 15.2785 31.92 14.7168 31.8865C14.2541 31.8596 13.902 31.464 13.9288 31.0012C13.9557 30.5402 14.3463 30.1546 14.8141 30.2132C17.1311 30.3474 23.5104 30.6106 25.1903 30.2334C25.6429 30.1294 26.0906 30.4128 26.1929 30.8654C26.2951 31.3181 26.0118 31.7657 25.5591 31.868C24.7628 32.0457 23.2471 32.1078 21.5941 32.1078V32.1078ZM14.7654 26.6154C14.3128 26.6154 13.9406 25.9934 13.9272 25.539C13.9154 25.0763 14.2809 24.5599 14.7436 24.5482L25.3529 24.2045C25.7653 24.2229 26.2012 24.5247 26.213 24.9874C26.2247 25.4501 25.8592 26.0805 25.3965 26.0923L14.7872 26.6154H14.7654V26.6154ZM26.0738 9.22107H26.0336C24.4023 9.22107 21.6946 7.70546 21.3912 7.5378C20.9855 7.31482 20.8363 6.81856 21.0609 6.41283C21.2839 6.00711 21.7952 5.86795 22.1993 6.08758C23.2153 6.64587 25.1752 7.54954 26.1124 7.59313C26.5751 7.61492 26.9322 7.98377 26.9104 8.44482C26.8903 8.89582 26.5181 9.22107 26.0738 9.22107ZM42.8729 18.9183C42.6986 18.9183 42.5208 18.863 42.37 18.7506C41.9994 18.4723 41.924 17.9476 42.2006 17.577L46.045 12.4334C46.325 12.0612 46.8497 11.9907 47.2186 12.2657C47.5891 12.544 47.6645 13.0688 47.3879 13.4393L43.5436 18.583C43.3792 18.8026 43.1278 18.9183 42.8729 18.9183Z" fill="#3B88C3"/>
<path d="M28.5753 55.3264C28.1125 55.3264 27.737 54.9509 27.737 54.4881V7.54451C27.737 7.08178 28.1125 6.70623 28.5753 6.70623C29.038 6.70623 29.4135 7.08178 29.4135 7.54451V54.4881C29.4135 54.9509 29.038 55.3264 28.5753 55.3264ZM44.4573 23.8742C44.1069 23.8742 43.78 23.6529 43.6609 23.3008C43.5151 22.8615 43.7531 22.3871 44.1907 22.2412L49.2204 20.5647C49.6597 20.4188 50.1341 20.6552 50.2817 21.0944C50.4275 21.5337 50.1895 22.0082 49.7519 22.154L44.7222 23.8306C44.6333 23.8608 44.5445 23.8742 44.4573 23.8742V23.8742ZM45.4834 29.7103C45.133 29.7103 44.806 29.4873 44.687 29.1369C44.5411 28.6976 44.7792 28.2232 45.2168 28.0756L50.2465 26.3991C50.6874 26.2582 51.1602 26.4896 51.3077 26.9289C51.4536 27.3681 51.2155 27.8426 50.7779 27.9885L45.7483 29.665C45.6594 29.6969 45.5722 29.7103 45.4834 29.7103V29.7103ZM46.4491 35.5531C46.0987 35.5531 45.7717 35.3301 45.6527 34.9797C45.5068 34.5404 45.7449 34.066 46.1825 33.9184L51.2122 32.2419C51.6514 32.096 52.1259 32.3341 52.2734 32.7717C52.4193 33.2109 52.1812 33.6854 51.7436 33.8329L46.7139 35.5095C46.6268 35.5413 46.5379 35.5531 46.4491 35.5531ZM47.5254 41.4009C47.175 41.3959 46.8514 41.1679 46.7391 40.8158C46.5999 40.3749 46.8447 39.9038 47.2857 39.7629L52.3388 38.1618C52.7797 38.0243 53.2508 38.2674 53.3917 38.7084C53.5308 39.1493 53.2861 39.6204 52.8451 39.7612L47.792 41.3624C47.7014 41.3909 47.6126 41.4026 47.5254 41.4009V41.4009ZM48.5213 47.1096C48.1726 47.0811 47.8641 46.833 47.7752 46.4742C47.6662 46.0249 47.9412 45.5705 48.3905 45.4599L53.5392 44.1957C53.9902 44.0868 54.4429 44.3617 54.5535 44.811C54.6625 45.2604 54.3876 45.7147 53.9382 45.8254L48.7895 47.0895C48.699 47.1113 48.6101 47.118 48.5213 47.1096ZM49.4887 52.8753C49.1399 52.8417 48.8348 52.5886 48.751 52.2281C48.6487 51.7771 48.9304 51.3278 49.3814 51.2239L54.5485 50.0402C54.9995 49.938 55.4488 50.2196 55.5528 50.6706C55.655 51.1216 55.3734 51.5709 54.9224 51.6749L49.7552 52.8585C49.6664 52.8803 49.5775 52.8837 49.4887 52.8753ZM35.9102 53.6968C34.3309 53.6968 32.7398 53.6146 31.5344 53.3699C31.08 53.276 30.7883 52.835 30.8789 52.3807C30.9727 51.9263 31.4221 51.633 31.868 51.7252C35.1256 52.3941 41.8368 51.7201 41.9022 51.7134C42.3566 51.6598 42.7757 52.0001 42.821 52.4612C42.8679 52.9222 42.5326 53.3347 42.0732 53.3799C41.8838 53.4 38.918 53.6968 35.9102 53.6968V53.6968ZM37.5381 48.5263C35.2111 48.5263 32.6694 48.3922 31.3902 47.8808C30.9593 47.7098 30.7514 47.2219 30.9241 46.7927C31.0968 46.3635 31.5864 46.1506 32.0122 46.3266C33.8698 47.066 40.0362 46.8447 42.2543 46.6938C42.6701 46.6653 43.1161 47.0107 43.1462 47.4751C43.1781 47.9361 42.8294 48.3368 42.365 48.367C41.9408 48.3938 39.8468 48.5263 37.5381 48.5263ZM35.4961 43.1965C33.667 43.1965 32.0239 43.0926 31.3399 42.764C30.9225 42.5644 30.7464 42.0632 30.9459 41.6457C31.1454 41.2282 31.6484 41.0539 32.0642 41.2517C32.9427 41.6725 37.9271 41.5619 42.2442 41.2115C42.6986 41.1763 43.111 41.5183 43.1462 41.9793C43.1831 42.4387 42.8394 42.8444 42.3784 42.8813C41.4512 42.9568 38.2624 43.1965 35.4961 43.1965V43.1965ZM35.5598 38.0159C33.8598 38.0159 32.2771 37.9019 31.3936 37.5532C30.9627 37.3839 30.7514 36.8977 30.9224 36.4668C31.0935 36.0359 31.5797 35.8213 32.0089 35.9957C33.7374 36.673 39.9658 36.1885 42.2191 35.942C42.6734 35.8917 43.0926 36.222 43.1446 36.6831C43.1949 37.1441 42.8629 37.5566 42.4035 37.6085C41.8469 37.6672 38.5273 38.0159 35.5598 38.0159ZM35.4525 32.1078C38.3915 32.1078 41.7681 31.92 42.3297 31.8865C42.7925 31.8596 43.1446 31.464 43.1177 31.0012C43.0909 30.5402 42.7003 30.1546 42.2325 30.2132C39.9155 30.3474 33.5362 30.6106 31.8563 30.2334C31.4053 30.1294 30.956 30.4128 30.8537 30.8654C30.7514 31.3181 31.0348 31.7657 31.4874 31.868C32.2855 32.0457 33.8011 32.1078 35.4525 32.1078ZM42.3096 26.6154H42.2878L31.6786 26.0755C31.2158 26.0638 30.8504 25.5474 30.8621 25.0847C30.8738 24.6236 31.2829 24.2279 31.7222 24.2028L42.3314 24.4492C42.7942 24.461 43.1596 25.0914 43.1479 25.5541C43.1362 26.0101 42.764 26.6154 42.3096 26.6154V26.6154ZM31.9267 20.5378C31.5025 20.5378 31.1387 20.2176 31.0951 19.7851C31.0482 19.3257 31.3818 18.9132 31.8412 18.8646L39.9189 18.028C40.3665 17.9811 40.7923 18.3147 40.8393 18.7758C40.8862 19.2351 40.5526 19.6476 40.0932 19.6962L32.0156 20.5328L31.9267 20.5378V20.5378ZM32.0675 14.5911C31.7373 14.5911 31.4221 14.3932 31.2913 14.068C31.1169 13.6388 31.3248 13.1509 31.7523 12.9766C34.4348 11.8901 41.971 11.4174 42.3264 11.3972C42.8495 11.3553 43.1831 11.7309 43.2049 12.1919C43.2301 12.6547 42.8746 13.0486 42.4102 13.0721C40.0748 13.1928 34.3912 13.7142 32.3811 14.529C32.2788 14.571 32.1715 14.5911 32.0675 14.5911V14.5911ZM14.2441 18.9183C14.4184 18.9183 14.5961 18.863 14.747 18.7506C15.1175 18.4723 15.193 17.9476 14.9164 17.577L11.072 12.4334C10.792 12.0612 10.2673 11.9907 9.89841 12.2657C9.52789 12.544 9.45245 13.0688 9.73076 13.4393L13.5751 18.583C13.7377 18.8026 13.9909 18.9183 14.2441 18.9183V18.9183ZM12.6614 23.8742C13.0118 23.8742 13.3387 23.6529 13.4577 23.3008C13.6036 22.8615 13.3655 22.3871 12.928 22.2412L7.89828 20.5647C7.45902 20.4188 6.98456 20.6552 6.83702 21.0944C6.69116 21.5337 6.92923 22.0082 7.36681 22.154L12.3965 23.8306C12.4837 23.8608 12.5725 23.8742 12.6614 23.8742V23.8742ZM11.6353 29.7103C11.9857 29.7103 12.3127 29.4873 12.4317 29.1369C12.5776 28.6976 12.3395 28.2232 11.9019 28.0756L6.87223 26.3991C6.43129 26.2582 5.9585 26.4896 5.81096 26.9289C5.6651 27.3681 5.90318 27.8426 6.34076 27.9885L11.3704 29.665C11.4576 29.6969 11.5465 29.7103 11.6353 29.7103V29.7103ZM10.668 35.5531C11.0184 35.5531 11.3453 35.3301 11.4643 34.9797C11.6102 34.5404 11.3721 34.066 10.9345 33.9184L5.90485 32.2419C5.46559 32.096 4.99113 32.3341 4.84359 32.7717C4.69773 33.2109 4.9358 33.6854 5.37338 33.8329L10.4031 35.5095C10.4919 35.5413 10.5808 35.5531 10.668 35.5531ZM9.59328 41.4009C9.94368 41.3959 10.2673 41.1679 10.3796 40.8158C10.5187 40.3749 10.274 39.9038 9.83303 39.7629L4.77988 38.1618C4.33895 38.0243 3.86783 38.2674 3.727 38.7084C3.58785 39.1493 3.83263 39.6204 4.27356 39.7612L9.32671 41.3624C9.41556 41.3909 9.50442 41.4026 9.59328 41.4009V41.4009ZM8.59573 47.1096C8.94445 47.0811 9.25294 46.833 9.3418 46.4742C9.45077 46.0249 9.17582 45.5705 8.7265 45.4599L3.57779 44.1957C3.1268 44.0868 2.67412 44.3617 2.56347 44.811C2.4545 45.2604 2.72945 45.7147 3.17877 45.8254L8.32748 47.0895C8.41969 47.1113 8.50855 47.118 8.59573 47.1096V47.1096ZM7.62835 52.8753C7.97708 52.8417 8.28221 52.5886 8.36604 52.2281C8.46831 51.7771 8.18665 51.3278 7.73565 51.2239L2.5685 50.0402C2.11751 49.938 1.66819 50.2196 1.56424 50.6706C1.46197 51.1216 1.74364 51.5709 2.19463 51.6749L7.36178 52.8585C7.45064 52.8803 7.54117 52.8837 7.62835 52.8753ZM25.1903 20.5378C25.6145 20.5378 25.9783 20.2176 26.0219 19.7851C26.0688 19.3257 25.7352 18.9132 25.2758 18.8646L17.1981 18.028C16.7505 17.9811 16.3247 18.3147 16.2777 18.7758C16.2308 19.2351 16.5644 19.6476 17.0238 19.6962L25.1014 20.5328L25.1903 20.5378ZM25.0511 14.5911C25.3814 14.5911 25.6966 14.3932 25.8274 14.068C26.0018 13.6388 25.7939 13.1509 25.3663 12.9766C22.6838 11.8901 15.1477 11.4174 14.7923 11.3972C14.2675 11.3536 13.9356 11.7309 13.9121 12.1903C13.8869 12.653 14.2424 13.0486 14.7068 13.0721C17.0439 13.1928 22.7258 13.7142 24.736 14.529C24.8399 14.571 24.9455 14.5911 25.0511 14.5911V14.5911ZM31.0029 9.22107C30.557 9.22107 30.1864 8.89749 30.1646 8.44817C30.1429 7.98544 30.5016 7.60654 30.9627 7.58475C31.9032 7.54116 33.8615 6.64587 34.8758 6.08926C35.2832 5.86795 35.7945 6.01549 36.0158 6.42289C36.2388 6.82862 36.0896 7.31482 35.6856 7.53613C35.3821 7.70378 32.6728 9.22107 31.0432 9.22107H31.0029V9.22107Z" fill="#3B88C3"/>
</svg>
