<svg width="36" height="43" viewBox="0 0 36 43" fill="none" xmlns="http://www.w3.org/2000/svg">
<path d="M35.7591 18.6942C35.5847 18.2272 35.138 17.9167 34.6387 17.9167H20.2158L28.5351 1.7415C28.7967 1.23267 28.6617 0.610361 28.2114 0.256806C27.994 0.0848056 27.7324 0 27.472 0C27.1937 0 26.9154 0.0979444 26.6921 0.29025L17.9165 7.869L0.414277 22.9847C0.0368325 23.3108 -0.0993341 23.8375 0.0750548 24.3046C0.249444 24.7716 0.694971 25.0833 1.19425 25.0833H15.6172L7.29786 41.2585C7.03628 41.7673 7.17125 42.3896 7.62155 42.7432C7.83894 42.9152 8.10053 43 8.36092 43C8.63922 43 8.91753 42.9021 9.14089 42.7097L17.9165 35.131L35.4187 20.0153C35.7973 19.6892 35.9323 19.1625 35.7591 18.6942V18.6942Z" fill="#FFAC33"/>
</svg>
